C:\GBW_MyPrograms\PredSim\Subjects\Ines_test\Reus\Reus_v1.mot
version=1
nRows=6
nColumns=31
inDegrees=yes
endheader
                time	         pelvis_tilt	           pelvis_tx	           pelvis_ty	       hip_flexion_r	        knee_angle_r	       ankle_angle_r	       hip_flexion_l	        knee_angle_l	       ankle_angle_l	    lumbar_extension	          arm_flex_r	          arm_flex_l	hamstrings_r/activation	bifemsh_r/activation	glut_max_r/activation	iliopsoas_r/activation	rect_fem_r/activation	  vasti_r/activation	gastroc_r/activation	 soleus_r/activation	tib_ant_r/activation	hamstrings_l/activation	bifemsh_l/activation	glut_max_l/activation	iliopsoas_l/activation	rect_fem_l/activation	  vasti_l/activation	gastroc_l/activation	 soleus_l/activation	tib_ant_l/activation	
          0.00000000	         -7.23116618	          0.00000000	          2.19926368	         34.15685265	        -27.58490542	         -6.66725359	        -19.61207199	          9.97883747	         -8.97138739	          3.70994544	         -5.11476288	         -5.11476283	          0.15672369	          0.09092742	          0.61839581	          0.18343684	          0.83994744	          0.44459139	          0.08628556	          0.21045779	          0.83396689	          0.04386857	          0.96943616	          0.07932718	          0.99614046	          0.06275326	          0.13537985	          0.98878402	          0.82402408	          0.03099018	
          0.01036085	         -7.04333457	          0.03081874	          2.19770114	         32.62385162	        -22.52634780	         -8.73313176	        -19.57135110	          8.13786560	         -8.93473692	          3.62111896	         -5.25240165	         -5.25240156	          0.13398657	          0.09290385	          0.52939548	          0.15718283	          0.86939583	          0.60443065	          0.07486782	          0.18271876	          0.89840811	          0.03895843	          0.97765168	          0.06834306	          0.99658856	          0.05399618	          0.11716848	          0.98817551	          0.89408657	          0.02831748	
          0.02072169	         -6.86018872	          0.06222510	          2.19569915	         31.09440040	        -18.26898229	        -10.65869399	        -19.57993125	          6.40657928	         -9.13223661	          3.56871518	         -5.42835310	         -5.42835294	          0.11560548	          0.08681953	          0.63952195	          0.13444338	          0.80107255	          0.75268139	          0.06493754	          0.16079672	          0.93514384	          0.04229860	          0.98035411	          0.05932599	          0.99612976	          0.04683850	          0.10190601	          0.98832607	          0.93640650	          0.02505917	
          0.03108254	         -6.72106653	          0.09401685	          2.19328113	         29.74186743	        -15.48227129	        -11.56048621	        -19.56713879	          4.73324155	         -9.50925659	          3.58950909	         -5.63909610	         -5.63909596	          0.42953219	          0.07967962	          0.78572657	          0.11498605	          0.70143311	          0.85190116	          0.05631443	          0.14597042	          0.84203427	          0.27262905	          0.97862284	          0.05254253	          0.99444861	          0.04108898	          0.08929304	          0.98805572	          0.96157239	          0.02198364	
          0.04144338	         -6.55890533	          0.12585902	          2.19101572	         28.63517742	        -14.90410454	        -10.27123793	        -19.55270206	          3.04828764	        -10.07446515	          3.58648542	         -5.84715270	         -5.84715255	          0.59510532	          0.07338280	          0.87246806	          0.09824191	          0.61545476	          0.91122748	          0.04892121	          0.13780862	          0.79616312	          0.31243626	          0.97106775	          0.04705980	          0.99210549	          0.03695388	          0.07889261	          0.98753296	          0.97630958	          0.01925627	
          0.05180423	         -6.39290444	          0.15703713	          2.18969455	         27.81401675	        -15.63620357	         -7.66732067	        -19.40537952	          1.21461607	        -10.89378200	          3.54687901	         -6.01153616	         -6.01153613	          0.54410518	          0.06770507	          0.92410505	          0.08391028	          0.54143167	          0.94662906	          0.04262110	          0.12270879	          0.76101838	          0.27707722	          0.95579646	          0.04594842	          0.98880702	          0.03445295	          0.07058834	          0.98668331	          0.98463167	          0.01688626	
